<svg width="11" height="14" viewBox="0 0 11 14" fill="none" xmlns="http://www.w3.org/2000/svg">
<path d="M9.1651 12.5324C8.45435 13.2214 7.67833 13.1126 6.93132 12.7862C6.14079 12.4526 5.41554 12.4381 4.58149 12.7862C3.53713 13.2359 2.98593 13.1054 2.36221 12.5324C-1.17703 8.88437 -0.654849 3.32892 3.36306 3.12585C4.34216 3.17662 5.0239 3.66254 5.59685 3.70605C6.45265 3.53199 7.27219 3.03157 8.18601 3.09684C9.28115 3.18387 10.1079 3.61902 10.6519 4.4023C8.38908 5.75852 8.92577 8.73932 11 9.57337C10.5866 10.6613 10.0499 11.7419 9.15785 12.5397L9.1651 12.5324ZM5.52432 3.08233C5.41554 1.46502 6.72825 0.130546 8.23678 0C8.4471 1.87116 6.53968 3.26365 5.52432 3.08233Z" fill="white"/>
</svg>
