<svg width="24" height="24" viewBox="0 0 24 24" fill="none" xmlns="http://www.w3.org/2000/svg">
<path d="M15.5 2.5C18.8137 2.5 21.5 5.18629 21.5 8.5V15.5C21.5 18.8137 18.8137 21.5 15.5 21.5H8.5C5.18629 21.5 2.5 18.8137 2.5 15.5V8.5C2.5 5.18629 5.18629 2.5 8.5 2.5H15.5ZM16.5469 8.9873C16.2636 8.68512 15.7895 8.66983 15.4873 8.95312L10.6943 13.4463L8.54102 11.2031C8.25416 10.9043 7.77928 10.8948 7.48047 11.1816C7.18202 11.4685 7.17242 11.9425 7.45898 12.2412L10.126 15.0195C10.4105 15.3156 10.8801 15.3277 11.1797 15.0469L16.5127 10.0469C16.8149 9.76358 16.8302 9.28949 16.5469 8.9873Z" fill="currentColor"/>
</svg>
