<svg width="72" height="72" viewBox="0 0 72 72" fill="none" xmlns="http://www.w3.org/2000/svg">
<path d="M45 24.6333L45 27L45 60.1972C45 61.431 45 62.0479 44.6039 62.2599C44.2078 62.4719 43.6945 62.1297 42.6679 61.4453L36.8321 57.5547C36.4287 57.2858 36.2271 57.1514 36 57.1514C35.7729 57.1514 35.5713 57.2858 35.1679 57.5547L27.8321 62.4453C27.4287 62.7142 27.2271 62.8486 27 62.8486C26.7729 62.8486 26.5713 62.7142 26.1679 62.4453L18.8321 57.5547C18.4287 57.2858 18.2271 57.1514 18 57.1514C17.7729 57.1514 17.5713 57.2858 17.1679 57.5547L11.3321 61.4453C10.3055 62.1297 9.79221 62.4719 9.39611 62.2599C9 62.0479 9 61.431 9 60.1972L9 21C9 15.3432 9 12.5147 10.7574 10.7574C12.5147 9.00002 15.3431 9.00002 21 9.00002L54 9.00003L53.0154 9.65641C49.0917 12.2722 47.1299 13.5801 46.0649 15.5699C45 17.5598 45 19.9176 45 24.6333Z" fill="#EFEFEF"/>
<path d="M45 18C45 13.0294 49.0294 9 54 9C58.9706 9 63 13.0294 63 18V24C63 25.6569 61.6569 27 60 27H46.5C45.6716 27 45 26.3284 45 25.5V18Z" fill="#FF7959"/>
<path d="M16.5 28.5L37.5 28.5" stroke="#FF7959" stroke-width="3" stroke-linecap="round"/>
<path d="M16.5 37.5L28.5 37.5" stroke="#FF7959" stroke-width="3" stroke-linecap="round"/>
<path d="M16.5 46.5L34.5 46.5" stroke="#FF7959" stroke-width="3" stroke-linecap="round"/>
</svg>
