<svg width="8" height="8" viewBox="0 0 8 8" fill="none" xmlns="http://www.w3.org/2000/svg">
<g clip-path="url(#clip0_122_1411)">
<path d="M2.76015 0.1795C2.77538 0.127664 2.807 0.0821594 2.85027 0.0498C2.89353 0.0174406 2.94612 -3.15932e-05 3.00015 4.28858e-08H5.00015C5.03974 3.00968e-05 5.07876 0.009463 5.11399 0.0275222C5.14922 0.0455814 5.17966 0.0717505 5.20281 0.103875C5.22595 0.136 5.24113 0.173161 5.2471 0.2123C5.25307 0.251439 5.24966 0.291437 5.23715 0.329L4.34715 3H6.25015C6.29696 2.99997 6.34285 3.01308 6.38258 3.03785C6.42231 3.06262 6.45428 3.09804 6.47486 3.14009C6.49545 3.18214 6.50381 3.22913 6.499 3.2757C6.49418 3.32226 6.47639 3.36655 6.44765 3.4035L2.94765 7.9035C2.91179 7.94982 2.86081 7.98208 2.8036 7.99465C2.74638 8.00722 2.68657 7.9993 2.6346 7.97228C2.58264 7.94525 2.54181 7.90083 2.51924 7.84677C2.49668 7.79272 2.49381 7.73245 2.51115 7.6765L3.41165 4.75H1.75015C1.71128 4.75002 1.67294 4.74098 1.63818 4.7236C1.60342 4.70621 1.57318 4.68096 1.54989 4.64985C1.52659 4.61874 1.51087 4.58262 1.50397 4.54437C1.49707 4.50612 1.49919 4.46679 1.51015 4.4295L2.76015 0.1795Z" fill="white"/>
</g>
<defs>
<clipPath id="clip0_122_1411">
<rect width="8" height="8" fill="white"/>
</clipPath>
</defs>
</svg>
