<svg width="57" height="92" viewBox="0 0 57 92" fill="none" xmlns="http://www.w3.org/2000/svg">
<rect x="8.05371" width="40.602" height="18.6096" rx="9.30479" fill="#EFEFEF"/>
<path d="M32.6035 21.8139V17.2625C32.6035 16.6424 33.1062 16.1396 33.7264 16.1396H38.2777C39.2781 16.1396 39.7791 17.3491 39.0717 18.0565L34.5204 22.6078C33.813 23.3152 32.6035 22.8142 32.6035 21.8139Z" fill="#EFEFEF"/>
<circle cx="19.9125" cy="9.00105" r="1.69966" fill="#FF6843"/>
<circle cx="28.3549" cy="9.00105" r="1.69966" fill="#FF6843"/>
<circle cx="36.7963" cy="9.00105" r="1.69966" fill="#FF6843"/>
<path d="M50.3523 78.918H6.82227V59.2649C6.82227 47.2444 16.5668 37.4998 28.5873 37.4998C40.6078 37.4998 50.3523 47.2444 50.3523 59.2649V78.918Z" fill="#EFEFEF"/>
<path fill-rule="evenodd" clip-rule="evenodd" d="M4.17882 57.966C4.17882 44.7162 14.9199 33.9751 28.1698 33.9751C41.4196 33.9751 52.1607 44.7162 52.1607 57.966V76.868H54.5248C55.7294 76.868 56.7058 77.8445 56.7058 79.049C56.7058 80.2535 55.7294 81.23 54.5248 81.23H2.18099C0.976464 81.23 0 80.2535 0 79.049C0 77.8445 0.976464 76.868 2.18099 76.868H4.17882V57.966ZM47.7987 57.966V76.868H8.54081V57.966C8.54081 47.1253 17.329 38.3371 28.1698 38.3371C39.0105 38.3371 47.7987 47.1253 47.7987 57.966Z" fill="#EFEFEF"/>
<path d="M16.721 87.046C15.5164 87.046 14.54 88.0224 14.54 89.2269C14.54 90.4315 15.5164 91.4079 16.721 91.4079H39.9849C41.1894 91.4079 42.1659 90.4315 42.1659 89.2269C42.1659 88.0224 41.1894 87.046 39.9849 87.046H16.721Z" fill="#EFEFEF"/>
</svg>
