<svg width="20" height="20" viewBox="0 0 20 20" fill="none" xmlns="http://www.w3.org/2000/svg">
<path fill-rule="evenodd" clip-rule="evenodd" d="M10 3.5C10.4142 3.5 10.75 3.83579 10.75 4.25V9.25H15.75C16.1642 9.25 16.5 9.58579 16.5 10C16.5 10.4142 16.1642 10.75 15.75 10.75H10.75V15.75C10.75 16.1642 10.4142 16.5 10 16.5C9.58579 16.5 9.25 16.1642 9.25 15.75V10.75H4.25C3.83579 10.75 3.5 10.4142 3.5 10C3.5 9.58579 3.83579 9.25 4.25 9.25H9.25V4.25C9.25 3.83579 9.58579 3.5 10 3.5Z" fill="currentColor"/>
</svg>
