<svg width="24" height="24" viewBox="0 0 24 24" fill="none" xmlns="http://www.w3.org/2000/svg">
<rect x="6" y="7" width="13" height="10" fill="white"/>
<mask id="mask0_505_3143" style="mask-type:luminance" maskUnits="userSpaceOnUse" x="2" y="2" width="20" height="20">
<path d="M12 21C13.1821 21.0015 14.3529 20.7693 15.445 20.3169C16.5371 19.8645 17.5291 19.2008 18.3639 18.3639C19.2008 17.5291 19.8645 16.5371 20.3169 15.445C20.7693 14.3529 21.0015 13.1821 21 12C21.0015 10.8179 20.7693 9.64714 20.3169 8.55502C19.8645 7.4629 19.2008 6.47093 18.3639 5.6361C17.5291 4.79918 16.5371 4.13545 15.445 3.68307C14.3529 3.23068 13.1821 2.99855 12 3.00001C10.8179 2.99855 9.64714 3.23068 8.55502 3.68307C7.4629 4.13545 6.47093 4.79918 5.6361 5.6361C4.79918 6.47093 4.13545 7.4629 3.68307 8.55502C3.23068 9.64714 2.99855 10.8179 3.00001 12C2.99855 13.1821 3.23068 14.3529 3.68307 15.445C4.13545 16.5371 4.79918 17.5291 5.6361 18.3639C6.47093 19.2008 7.4629 19.8645 8.55502 20.3169C9.64714 20.7693 10.8179 21.0015 12 21Z" fill="white" stroke="white" stroke-width="1.8" stroke-linejoin="round"/>
<path d="M8.39844 11.9969L11.0984 14.6969L16.4984 9.29688" stroke="black" stroke-width="1.8" stroke-linecap="round" stroke-linejoin="round"/>
</mask>
<g mask="url(#mask0_505_3143)">
<path d="M1.20312 1.20312H22.8031V22.8031H1.20312V1.20312Z" fill="#45B450"/>
</g>
</svg>
