<svg width="24" height="24" viewBox="0 0 24 24" fill="none" xmlns="http://www.w3.org/2000/svg">
<path fill-rule="evenodd" clip-rule="evenodd" d="M9.56828 3C8.77544 3 8.08165 3.53302 7.87737 4.29909L7.56005 5.48901H4C3.58579 5.48901 3.25 5.8248 3.25 6.23901C3.25 6.65323 3.58579 6.98901 4 6.98901H20C20.4142 6.98901 20.75 6.65323 20.75 6.23901C20.75 5.8248 20.4142 5.48901 20 5.48901H16.4399L16.1226 4.29909C15.9183 3.53302 15.2246 3 14.4317 3H9.56828ZM14.8875 5.48901L14.6733 4.68558C14.6441 4.57615 14.545 4.5 14.4317 4.5H9.56828C9.45502 4.5 9.3559 4.57615 9.32672 4.68558L9.11247 5.48901H14.8875ZM4.9321 9.00308C5.34461 8.96558 5.70942 9.26959 5.74692 9.6821L6.49888 17.9537C6.60424 19.1126 7.57594 20 8.73964 20H15.2604C16.4241 20 17.3958 19.1126 17.5011 17.9537L18.2531 9.6821C18.2906 9.26959 18.6554 8.96558 19.0679 9.00308C19.4804 9.04058 19.7844 9.40539 19.7469 9.8179L18.995 18.0895C18.8194 20.0211 17.1999 21.5 15.2604 21.5H8.73964C6.80013 21.5 5.18064 20.0211 5.00504 18.0895L4.25308 9.8179C4.21558 9.40539 4.51959 9.04058 4.9321 9.00308ZM13 12C13 11.5858 12.6642 11.25 12.25 11.25C11.8358 11.25 11.5 11.5858 11.5 12V16.5C11.5 16.9142 11.8358 17.25 12.25 17.25C12.6642 17.25 13 16.9142 13 16.5V12Z" fill="currentColor"/>
</svg>
